<svg width="102" height="102" viewBox="0 0 102 102" fill="none" xmlns="http://www.w3.org/2000/svg">
<path d="M86.4037 15.5963C81.8094 10.8738 76.2966 7.14229 70.2049 4.63193C64.1133 2.12158 57.5721 0.88554 50.9845 1.00002C44.4036 0.900767 37.8715 2.14389 31.7871 4.65347C25.7027 7.16306 20.1936 10.8864 15.5963 15.5963C10.8826 20.1972 7.15697 25.7113 4.64726 31.8014C2.13755 37.8915 0.896495 44.4294 0.999989 51.0155C0.883326 57.5988 2.11849 64.1361 4.6291 70.223C7.13971 76.3099 10.8724 81.817 15.5963 86.4037C20.183 91.1276 25.6901 94.8603 31.777 97.3709C37.8639 99.8815 44.4012 101.117 50.9845 101C57.574 101.128 64.1193 99.8987 70.2129 97.3875C76.3065 94.8763 81.8179 91.1375 86.4037 86.4037C91.1276 81.817 94.8603 76.3099 97.3709 70.223C99.8815 64.1361 101.117 57.5988 101 51.0155C101.108 44.4288 99.8691 37.8895 97.3591 31.7988C94.8491 25.7081 91.1211 20.1945 86.4037 15.5963ZM83.4379 83.4379C79.2456 87.7949 74.1999 91.2406 68.616 93.5596C63.0321 95.8787 57.0299 97.0213 50.9845 96.9162C44.9384 97.0096 38.9374 95.8616 33.3526 93.5433C27.7678 91.225 22.718 87.7856 18.5155 83.4379C14.1857 79.234 10.7607 74.1894 8.45098 68.614C6.14123 63.0386 4.9954 57.0498 5.08384 51.0155C4.98545 44.9522 6.12598 38.9326 8.43557 33.3255C10.7452 27.7184 14.1752 22.6419 18.5155 18.4069C22.7385 14.0968 27.7956 10.6925 33.3781 8.4019C38.9605 6.11125 44.9512 4.98227 50.9845 5.08387C57.0204 4.97671 63.0142 6.10777 68.5959 8.40724C74.1777 10.7067 79.2289 14.1258 83.4379 18.4534C87.7933 22.6795 91.2363 27.7533 93.5545 33.3618C95.8727 38.9702 97.0167 44.9943 96.9161 51.0621C97.0004 57.0932 95.8479 63.0775 93.5298 68.6458C91.2117 74.2142 87.777 79.2484 83.4379 83.4379Z" fill="#195FA5"/>
<path fill-rule="evenodd" clip-rule="evenodd" d="M66.3264 14.1078C71.1552 16.1189 75.5203 19.0988 79.1521 22.8633C82.9329 26.5063 85.9235 30.8885 87.9377 35.7371C89.952 40.5857 90.9467 45.797 90.8601 51.0466C90.9406 56.2907 89.9429 61.4955 87.9289 66.3382C85.9149 71.1809 82.9275 75.5582 79.1521 79.1987C75.5227 82.9644 71.1573 85.9429 66.3275 87.9491C61.4977 89.9553 56.3067 90.9462 51.0775 90.8602C45.8268 90.9516 40.6133 89.9637 35.7601 87.9577C30.9068 85.9518 26.5172 82.9705 22.8632 79.1987C19.1028 75.5492 16.1285 71.1691 14.1231 66.3278C12.1177 61.4865 11.1235 56.2862 11.2017 51.0466C11.1174 45.8015 12.1087 40.5947 14.1143 35.7475C16.12 30.9003 19.0975 26.5154 22.8632 22.8633C26.5196 19.0926 30.9089 16.11 35.7611 14.0992C40.6133 12.0883 45.8257 11.0918 51.0775 11.1708C56.3078 11.0971 61.4977 12.0967 66.3264 14.1078ZM45 68.0963V51.0466L58 29H51L41.5 47L32 29H25L38.003 51.0466L38 68.0963H41.5H45ZM74.385 63.8882V67.5062H81.0154V50.0994C81.0154 42.2422 76.7918 37.677 68.1117 37.677C64.5786 37.6238 61.0746 38.3225 57.8322 39.7267L60.1303 44.9751C62.3759 44.117 64.7605 43.6801 67.1645 43.6863C71.8384 43.6863 74.4005 45.9068 74.4005 49.9751V50.5342C71.7764 49.6713 69.4537 48.9185 66.2638 49.3074C62.7551 49.7353 60.1643 50.2053 58 53C56.6006 54.807 56.0342 56.2148 56 58.5C55.9214 63.7534 60.7632 67.076 66 67.5C67.7362 67.6406 68.9024 67.6845 70.4273 66.9582C71.9523 66.2319 73.3023 65.1847 74.385 63.8882Z" fill="#195FA5"/>
<path d="M62.9098 62.0404C64.0688 62.7423 65.4065 63.0929 66.7607 63.0497C71.2173 63.0497 74.5247 60.5497 74.5247 56.8385V55.2081C72.361 54.4187 70.0732 54.0242 67.7701 54.0435C63.9239 53.9894 61.0941 55.031 61 58.1147C60.948 59.8187 61.7419 61.1144 62.9098 62.0404Z" fill="#195FA5"/>
</svg>
